<mxfile host="app.diagrams.net" modified="2023-08-25T14:25:25.033Z" agent="Mozilla/5.0 (X11; Linux x86_64; rv:109.0) Gecko/20100101 Firefox/112.0" etag="jzLbW1bqAEoY8sdqd65u" version="21.6.9" type="github">
  <diagram id="R2lEEEUBdFMjLlhIrx00" name="Page-1">
    <mxGraphModel dx="1434" dy="767" grid="1" gridSize="10" guides="1" tooltips="1" connect="1" arrows="1" fold="1" page="1" pageScale="1" pageWidth="850" pageHeight="1100" math="0" shadow="0" extFonts="Permanent Marker^https://fonts.googleapis.com/css?family=Permanent+Marker">
      <root>
        <mxCell id="0" />
        <mxCell id="1" parent="0" />
        <mxCell id="0bmNsgy-1YxL1w3g-o7_-3" value="" style="edgeStyle=orthogonalEdgeStyle;rounded=0;orthogonalLoop=1;jettySize=auto;html=1;" edge="1" parent="1" source="0bmNsgy-1YxL1w3g-o7_-1" target="0bmNsgy-1YxL1w3g-o7_-2">
          <mxGeometry relative="1" as="geometry" />
        </mxCell>
        <mxCell id="0bmNsgy-1YxL1w3g-o7_-1" value="BERÇARIO" style="rounded=1;whiteSpace=wrap;html=1;" vertex="1" parent="1">
          <mxGeometry y="90" width="120" height="30" as="geometry" />
        </mxCell>
        <mxCell id="0bmNsgy-1YxL1w3g-o7_-15" style="edgeStyle=orthogonalEdgeStyle;rounded=0;orthogonalLoop=1;jettySize=auto;html=1;exitX=1;exitY=0.5;exitDx=0;exitDy=0;entryX=0;entryY=0.25;entryDx=0;entryDy=0;" edge="1" parent="1" source="0bmNsgy-1YxL1w3g-o7_-2" target="0bmNsgy-1YxL1w3g-o7_-7">
          <mxGeometry relative="1" as="geometry" />
        </mxCell>
        <mxCell id="0bmNsgy-1YxL1w3g-o7_-2" value="REGISTRO" style="rhombus;whiteSpace=wrap;html=1;rounded=1;" vertex="1" parent="1">
          <mxGeometry x="220" y="65" width="80" height="80" as="geometry" />
        </mxCell>
        <mxCell id="0bmNsgy-1YxL1w3g-o7_-4" value="1" style="text;html=1;align=center;verticalAlign=middle;resizable=0;points=[];autosize=1;strokeColor=none;fillColor=none;" vertex="1" parent="1">
          <mxGeometry x="145" y="78" width="30" height="30" as="geometry" />
        </mxCell>
        <mxCell id="0bmNsgy-1YxL1w3g-o7_-5" value="1" style="text;html=1;align=center;verticalAlign=middle;resizable=0;points=[];autosize=1;strokeColor=none;fillColor=none;" vertex="1" parent="1">
          <mxGeometry x="145" y="108" width="30" height="30" as="geometry" />
        </mxCell>
        <mxCell id="0bmNsgy-1YxL1w3g-o7_-6" value="BEBÊ" style="swimlane;childLayout=stackLayout;horizontal=1;startSize=40;horizontalStack=0;rounded=1;fontSize=14;fontStyle=0;strokeWidth=2;resizeParent=0;resizeLast=1;shadow=0;dashed=0;align=center;arcSize=4;whiteSpace=wrap;html=1;" vertex="1" parent="1">
          <mxGeometry x="345" y="45" width="160" height="120" as="geometry" />
        </mxCell>
        <mxCell id="0bmNsgy-1YxL1w3g-o7_-7" value="&lt;div&gt;NOME&lt;/div&gt;&lt;div&gt;DATA DE NASCIMENTO&lt;/div&gt;&lt;div&gt;MÃE&lt;/div&gt;&lt;div&gt;PESO&lt;/div&gt;&lt;div&gt;MEDICO&lt;br&gt;&lt;/div&gt;" style="align=left;strokeColor=none;fillColor=none;spacingLeft=4;fontSize=12;verticalAlign=top;resizable=0;rotatable=0;part=1;html=1;" vertex="1" parent="0bmNsgy-1YxL1w3g-o7_-6">
          <mxGeometry y="40" width="160" height="80" as="geometry" />
        </mxCell>
        <mxCell id="0bmNsgy-1YxL1w3g-o7_-13" style="edgeStyle=orthogonalEdgeStyle;rounded=0;orthogonalLoop=1;jettySize=auto;html=1;exitX=0.25;exitY=0;exitDx=0;exitDy=0;entryX=0.381;entryY=-0.038;entryDx=0;entryDy=0;entryPerimeter=0;" edge="1" parent="0bmNsgy-1YxL1w3g-o7_-6" source="0bmNsgy-1YxL1w3g-o7_-7" target="0bmNsgy-1YxL1w3g-o7_-7">
          <mxGeometry relative="1" as="geometry" />
        </mxCell>
        <mxCell id="0bmNsgy-1YxL1w3g-o7_-9" value="N" style="text;html=1;align=center;verticalAlign=middle;resizable=0;points=[];autosize=1;strokeColor=none;fillColor=none;" vertex="1" parent="1">
          <mxGeometry x="305" y="78" width="30" height="30" as="geometry" />
        </mxCell>
        <mxCell id="0bmNsgy-1YxL1w3g-o7_-10" value="N" style="text;html=1;align=center;verticalAlign=middle;resizable=0;points=[];autosize=1;strokeColor=none;fillColor=none;" vertex="1" parent="1">
          <mxGeometry x="305" y="108" width="30" height="30" as="geometry" />
        </mxCell>
        <mxCell id="0bmNsgy-1YxL1w3g-o7_-31" style="edgeStyle=orthogonalEdgeStyle;rounded=0;orthogonalLoop=1;jettySize=auto;html=1;exitX=1;exitY=0.5;exitDx=0;exitDy=0;entryX=0.063;entryY=0.071;entryDx=0;entryDy=0;entryPerimeter=0;" edge="1" parent="1" source="0bmNsgy-1YxL1w3g-o7_-16" target="0bmNsgy-1YxL1w3g-o7_-30">
          <mxGeometry relative="1" as="geometry" />
        </mxCell>
        <mxCell id="0bmNsgy-1YxL1w3g-o7_-35" value="" style="edgeStyle=orthogonalEdgeStyle;rounded=0;orthogonalLoop=1;jettySize=auto;html=1;" edge="1" parent="1" source="0bmNsgy-1YxL1w3g-o7_-16">
          <mxGeometry relative="1" as="geometry">
            <mxPoint x="610" y="235" as="targetPoint" />
          </mxGeometry>
        </mxCell>
        <mxCell id="0bmNsgy-1YxL1w3g-o7_-16" value="TER" style="rhombus;whiteSpace=wrap;html=1;" vertex="1" parent="1">
          <mxGeometry x="570" y="65" width="80" height="80" as="geometry" />
        </mxCell>
        <mxCell id="0bmNsgy-1YxL1w3g-o7_-17" style="edgeStyle=orthogonalEdgeStyle;rounded=0;orthogonalLoop=1;jettySize=auto;html=1;exitX=1;exitY=0.25;exitDx=0;exitDy=0;entryX=0;entryY=0.5;entryDx=0;entryDy=0;" edge="1" parent="1" source="0bmNsgy-1YxL1w3g-o7_-7" target="0bmNsgy-1YxL1w3g-o7_-16">
          <mxGeometry relative="1" as="geometry" />
        </mxCell>
        <mxCell id="0bmNsgy-1YxL1w3g-o7_-18" value="1" style="text;html=1;align=center;verticalAlign=middle;resizable=0;points=[];autosize=1;strokeColor=none;fillColor=none;" vertex="1" parent="1">
          <mxGeometry x="525" y="78" width="30" height="30" as="geometry" />
        </mxCell>
        <mxCell id="0bmNsgy-1YxL1w3g-o7_-19" value="N" style="text;html=1;align=center;verticalAlign=middle;resizable=0;points=[];autosize=1;strokeColor=none;fillColor=none;" vertex="1" parent="1">
          <mxGeometry x="525" y="108" width="30" height="30" as="geometry" />
        </mxCell>
        <mxCell id="0bmNsgy-1YxL1w3g-o7_-29" value="MÃE" style="swimlane;childLayout=stackLayout;horizontal=1;startSize=50;horizontalStack=0;rounded=1;fontSize=14;fontStyle=0;strokeWidth=2;resizeParent=0;resizeLast=1;shadow=0;dashed=0;align=center;arcSize=4;whiteSpace=wrap;html=1;" vertex="1" parent="1">
          <mxGeometry x="690" y="50" width="160" height="120" as="geometry" />
        </mxCell>
        <mxCell id="0bmNsgy-1YxL1w3g-o7_-30" value="&lt;div&gt;NOME&lt;/div&gt;&lt;div&gt;ENDEREÇO&lt;/div&gt;&lt;div&gt;TELEFONE&lt;/div&gt;&lt;div&gt;DATA&lt;br&gt;&lt;/div&gt;" style="align=left;strokeColor=none;fillColor=none;spacingLeft=4;fontSize=12;verticalAlign=top;resizable=0;rotatable=0;part=1;html=1;" vertex="1" parent="0bmNsgy-1YxL1w3g-o7_-29">
          <mxGeometry y="50" width="160" height="70" as="geometry" />
        </mxCell>
        <mxCell id="0bmNsgy-1YxL1w3g-o7_-32" value="1" style="text;html=1;align=center;verticalAlign=middle;resizable=0;points=[];autosize=1;strokeColor=none;fillColor=none;" vertex="1" parent="1">
          <mxGeometry x="655" y="78" width="30" height="30" as="geometry" />
        </mxCell>
        <mxCell id="0bmNsgy-1YxL1w3g-o7_-33" value="1" style="text;html=1;align=center;verticalAlign=middle;resizable=0;points=[];autosize=1;strokeColor=none;fillColor=none;" vertex="1" parent="1">
          <mxGeometry x="655" y="98" width="30" height="30" as="geometry" />
        </mxCell>
        <mxCell id="0bmNsgy-1YxL1w3g-o7_-36" value="MEDICO" style="swimlane;childLayout=stackLayout;horizontal=1;startSize=50;horizontalStack=0;rounded=1;fontSize=14;fontStyle=0;strokeWidth=2;resizeParent=0;resizeLast=1;shadow=0;dashed=0;align=center;arcSize=4;whiteSpace=wrap;html=1;" vertex="1" parent="1">
          <mxGeometry x="530" y="240" width="160" height="120" as="geometry" />
        </mxCell>
        <mxCell id="0bmNsgy-1YxL1w3g-o7_-37" value="&lt;div&gt;CRM&lt;/div&gt;&lt;div&gt;NOME&lt;/div&gt;&lt;div&gt;TELEFONE&lt;/div&gt;&lt;div&gt;ESPECIALIDADE&lt;br&gt;&lt;/div&gt;" style="align=left;strokeColor=none;fillColor=none;spacingLeft=4;fontSize=12;verticalAlign=top;resizable=0;rotatable=0;part=1;html=1;" vertex="1" parent="0bmNsgy-1YxL1w3g-o7_-36">
          <mxGeometry y="50" width="160" height="70" as="geometry" />
        </mxCell>
      </root>
    </mxGraphModel>
  </diagram>
</mxfile>
